# xmcd
#
# Track frame offsets: 
#        150
#        10890
#        25860
#        48366
#        60028
#        83281
#        94638
#        106816
#        130047
#        144043
#        152405
#
# Disc length: 2276 seconds
#
# Revision: 0
# Processed by: cddbd v1.5.2PL0 Copyright (c) Steve Scherf et al.
# Submitted via: ExactAudioCopy v1.3
#
DISCID=6608e20b
DTITLE=Old Crow Medicine Show - Volunteer
DYEAR=2018
DGENRE=Bluegrass
TTITLE0=Flicker and Shine
TTITLE1=A World Away
TTITLE2=Child of the Mississippi
TTITLE3=Dixie Avenue
TTITLE4=Look Away
TTITLE5=Shout Mountain Music
TTITLE6=The Good Stuff
TTITLE7=Old Hickory
TTITLE8=Homecoming Party
TTITLE9=Elzick's Farewell
TTITLE10=Whirlwind
EXTD=
EXTT0=
EXTT1=
EXTT2=
EXTT3=
EXTT4=
EXTT5=
EXTT6=
EXTT7=
EXTT8=
EXTT9=
EXTT10=
PLAYORDER=
